<?xml version="1.0" encoding="UTF-8"?>
<!DOCTYPE svg PUBLIC "-//W3C//DTD SVG 1.1//EN" "http://www.w3.org/Graphics/SVG/1.1/DTD/svg11.dtd">
<svg xmlns="http://www.w3.org/2000/svg" version="1.1" width="1089px" height="1444px" style="shape-rendering:geometricPrecision; text-rendering:geometricPrecision; image-rendering:optimizeQuality; fill-rule:evenodd; clip-rule:evenodd" xmlns:xlink="http://www.w3.org/1999/xlink">
<g><path style="opacity:0.992" fill="#fe2d2d" d="M 110.5,-0.5 C 182.833,-0.5 255.167,-0.5 327.5,-0.5C 367.647,7.50832 387.48,32.175 387,73.5C 391.504,88.9961 401.837,97.6628 418,99.5C 434.54,97.6266 444.873,88.6266 449,72.5C 449.015,31.7187 468.849,7.38536 508.5,-0.5C 512.5,-0.5 516.5,-0.5 520.5,-0.5C 520.5,38.8333 520.5,78.1667 520.5,117.5C 390.777,117.005 261.11,117.505 131.5,119C 124.851,122.314 120.351,127.481 118,134.5C 117.333,239.167 117.333,343.833 118,448.5C 120.408,455.909 125.242,461.076 132.5,464C 261.79,465.493 391.123,465.993 520.5,465.5C 520.5,504.5 520.5,543.5 520.5,582.5C 381.833,582.667 243.166,582.5 104.5,582C 49.5418,573.707 15.7085,542.54 3,488.5C 2.00318,482.539 1.33652,476.539 1,470.5C 0.0223911,347.151 0.355724,223.818 2,100.5C 13.3766,40.082 49.5433,6.41535 110.5,-0.5 Z"/></g>
<g><path style="opacity:0.994" fill="#fe2d2d" d="M 674.5,-0.5 C 748.833,-0.5 823.167,-0.5 897.5,-0.5C 936.598,7.7949 956.098,32.1282 956,72.5C 960.127,88.6266 970.46,97.6266 987,99.5C 1003.54,97.6266 1013.87,88.6266 1018,72.5C 1018.02,31.6996 1037.85,7.36629 1077.5,-0.5C 1081.17,-0.5 1084.83,-0.5 1088.5,-0.5C 1088.5,38.8333 1088.5,78.1667 1088.5,117.5C 958.833,117.333 829.166,117.5 699.5,118C 691.523,119.975 686.023,124.808 683,132.5C 681.868,146.615 681.368,160.781 681.5,175C 681.368,189.219 681.868,203.385 683,217.5C 685.924,224.758 691.091,229.592 698.5,232C 791.5,232.333 884.5,232.667 977.5,233C 1028.21,237.066 1063.04,262.566 1082,309.5C 1084.89,318.803 1087.06,328.137 1088.5,337.5C 1088.5,384.167 1088.5,430.833 1088.5,477.5C 1079.59,537.249 1045.25,572.082 985.5,582C 845.167,582.5 704.834,582.667 564.5,582.5C 564.5,543.5 564.5,504.5 564.5,465.5C 693.5,465.667 822.5,465.5 951.5,465C 960.372,463.134 966.538,457.967 970,449.5C 971.621,423.208 971.954,396.874 971,370.5C 969.561,361.059 964.395,354.559 955.5,351C 857.187,349.991 758.854,348.991 660.5,348C 605.321,336.154 573.488,302.32 565,246.5C 564.333,198.833 564.333,151.167 565,103.5C 573.175,48.9925 604.008,15.1592 657.5,2C 663.331,1.29031 668.998,0.456977 674.5,-0.5 Z"/></g>
<g><path style="opacity:0.992" fill="#fe2d2d" d="M 117.5,1443.5 C 78.1667,1443.5 38.8333,1443.5 -0.5,1443.5C -0.5,1196.17 -0.5,948.833 -0.5,701.5C 5.30806,662.188 27.6414,638.021 66.5,629C 182.144,627.349 297.811,627.016 413.5,628C 461.013,631.661 495.18,654.827 516,697.5C 519.148,705.611 521.482,713.944 523,722.5C 524.654,850.808 524.988,979.141 524,1107.5C 516.372,1160.79 486.538,1194.29 434.5,1208C 430.181,1208.76 425.848,1209.43 421.5,1210C 359.167,1210.67 296.833,1210.67 234.5,1210C 208.577,1204.74 191.411,1189.58 183,1164.5C 181.499,1153.12 179.832,1141.79 178,1130.5C 170.566,1116.03 158.733,1109.87 142.5,1112C 129.222,1116.02 121.055,1124.86 118,1138.5C 117.5,1240.17 117.333,1341.83 117.5,1443.5 Z M 134.5,745.5 C 219.501,745.333 304.501,745.5 389.5,746C 399.112,748.611 404.945,754.778 407,764.5C 407.667,867.5 407.667,970.5 407,1073.5C 404.5,1084 398,1090.5 387.5,1093C 303.833,1093.67 220.167,1093.67 136.5,1093C 127.182,1091.01 121.015,1085.51 118,1076.5C 117.333,971.833 117.333,867.167 118,762.5C 121.019,754.316 126.519,748.649 134.5,745.5 Z"/></g>
<g><path style="opacity:0.99" fill="#fe2d2d" d="M 1088.5,628.5 C 1088.5,667.833 1088.5,707.167 1088.5,746.5C 996.499,746.333 904.499,746.5 812.5,747C 801.764,748.772 795.264,754.939 793,765.5C 792.009,870.543 792.342,975.543 794,1080.5C 797.782,1088.32 803.949,1093.15 812.5,1095C 837.164,1095.5 861.831,1095.67 886.5,1095.5C 886.5,1134.83 886.5,1174.17 886.5,1213.5C 779.833,1213.5 673.167,1213.5 566.5,1213.5C 566.08,1191.46 566.58,1169.46 568,1147.5C 572.37,1126.93 583.87,1111.76 602.5,1102C 608.929,1099.19 615.595,1097.19 622.5,1096C 634.89,1095.92 647.223,1095.25 659.5,1094C 666,1091.5 670.5,1087 673,1080.5C 674.16,1027.22 674.66,973.891 674.5,920.5C 674.333,868.167 674.167,815.833 674,763.5C 670.876,754.044 664.376,748.544 654.5,747C 625.169,746.5 595.835,746.333 566.5,746.5C 566.5,707.167 566.5,667.833 566.5,628.5C 622.168,628.333 677.834,628.5 733.5,629C 763.643,633.484 782.81,650.317 791,679.5C 791.961,688.178 792.961,696.844 794,705.5C 799.106,719.762 809.273,727.429 824.5,728.5C 838.747,727.086 848.58,719.753 854,706.5C 853.966,689.458 857.966,673.458 866,658.5C 877.89,641.131 894.39,631.297 915.5,629C 973.166,628.5 1030.83,628.333 1088.5,628.5 Z"/></g>
</svg>
