<?xml version="1.0" encoding="UTF-8"?>
<svg xmlns="http://www.w3.org/2000/svg" viewBox="0 0 100 100">
  <defs>
    <style>.cls-1{fill:#ff2d2e;}.cls-1,.cls-2{stroke-width:0px;}.cls-2{fill:#fff;}</style>
  </defs>
  <g id="White_BG">
    <rect class="cls-2" width="100" height="100"/>
  </g>
  <g id="No_Safe_Area">
    <path class="cls-1"
          d="m36.81,64.14v-28.06c0-.8.3-1.59.9-2.12.48-.42,1.05-.64,1.71-.64h39.56v-15.83h-.6c-3.99,0-7.23,3.24-7.23,7.23v.13c0,1.97-1.52,3.7-3.49,3.75-2.03.05-3.68-1.57-3.68-3.59v-.35c0-3.96-3.21-7.18-7.18-7.18h-22.49c-2.54,0-4.81.57-6.82,1.71-2.01,1.14-3.59,2.72-4.73,4.73-1.14,2.01-1.71,4.28-1.71,6.82v38.47c0,2.54.57,4.81,1.71,6.82,1.14,2.01,2.72,3.59,4.73,4.73,2.01,1.14,4.28,1.71,6.82,1.71h44.68v-15.76h-39.41c-.8,0-1.59-.3-2.12-.9-.42-.48-.64-1.05-.64-1.71Z"/>
  </g>
</svg>
